<svg width="60" height="60" viewBox="0 0 60 60" fill="none" xmlns="http://www.w3.org/2000/svg">
<g id="Brands / vk">
<path id="Vector" d="M37.6824 5H22.3438C8.33328 5 5 8.33328 5 22.3176V37.6562C5 51.6666 8.30735 55 22.3176 55H37.6562C51.6667 55 55 51.6926 55 37.6822V22.3438C55 8.33328 51.6926 5 37.6824 5ZM45.3645 40.677H41.7188C40.3386 40.677 39.9219 39.5572 37.448 37.0833C35.2864 35 34.375 34.7395 33.8281 34.7395C33.073 34.7395 32.8645 34.9478 32.8645 35.9895V39.2708C32.8645 40.1562 32.5781 40.677 30.2605 40.677C28.0114 40.5259 25.8305 39.8427 23.8972 38.6836C21.9639 37.5246 20.3336 35.9228 19.1406 34.0103C16.3084 30.4851 14.3378 26.3477 13.3855 21.927C13.3855 21.3801 13.5938 20.8853 14.6355 20.8853H18.2812C19.2188 20.8853 19.5574 21.302 19.9219 22.2656C21.6926 27.4739 24.7136 32.0051 25.9375 32.0051C26.4062 32.0051 26.6145 31.7969 26.6145 30.625V25.2603C26.4583 22.8125 25.1562 22.6041 25.1562 21.7188C25.1734 21.4852 25.2809 21.2675 25.4559 21.1119C25.631 20.9563 25.8598 20.875 26.0938 20.8853H31.823C32.6042 20.8853 32.8645 21.2759 32.8645 22.2134V29.4531C32.8645 30.2344 33.2031 30.4947 33.4375 30.4947C33.9062 30.4947 34.2708 30.2344 35.1301 29.375C36.9769 27.1229 38.4858 24.614 39.6094 21.927C39.7241 21.6037 39.9414 21.3268 40.2283 21.1387C40.5152 20.9506 40.8558 20.8616 41.198 20.8853H44.8438C45.9375 20.8853 46.1719 21.4322 45.9375 22.2134C44.6109 25.1842 42.9696 28.0042 41.0417 30.625C40.6511 31.2239 40.4949 31.5364 41.0417 32.2395C41.4063 32.7864 42.6824 33.8541 43.5417 34.8697C44.7917 36.1165 45.8296 37.5592 46.6145 39.1406C46.927 40.1562 46.4062 40.677 45.3645 40.677Z" fill="#8AA596"/>
</g>
</svg>
