<svg width="531" height="119" viewBox="0 0 531 119" fill="none" xmlns="http://www.w3.org/2000/svg">
<g id="shatura-logo 2" clip-path="url(#clip0_129_1410)">
<g id="&#208;&#161;&#208;&#187;&#208;&#190;&#208;&#185;_x0020_1">
<path id="polygon3748" d="M213.071 28.4311V81.7427H228.418V28.4311H256.296V15.2456H185.199V28.4311H213.071Z" fill="#363630"/>
<path id="path3750" d="M162.169 65.1488C156.665 69.6922 149.972 71.9972 142.274 71.9972C134.663 71.9972 128.085 69.7146 122.724 65.2091C117.293 60.6486 114.437 55.0323 114.238 48.4927C114.088 41.9748 116.839 36.3252 122.418 31.6996C127.894 27.1531 134.576 24.8513 142.274 24.8513C149.931 24.8513 156.533 27.1454 161.901 31.6749C167.331 36.257 170.159 41.8927 170.31 48.4131C170.509 54.89 167.768 60.5178 162.169 65.1488ZM163.781 17.9508C157.261 14.7597 150.024 13.1458 142.274 13.1458C134.521 13.1458 127.249 14.7535 120.658 17.9238C114.093 21.0779 108.841 25.4217 105.048 30.8422C101.295 36.2076 99.4811 42.1164 99.6561 48.4161C99.9234 58.2654 104.053 66.6859 111.926 73.4446C119.857 80.2489 130.069 83.7003 142.274 83.7003C146.936 83.7003 151.631 82.9162 156.233 81.3713C160.819 79.828 164.718 77.7637 167.825 75.2357L170.31 73.2125V81.7452H184.963V48.4571C184.963 42.1443 183.055 36.2184 179.293 30.8422C175.497 25.4247 170.283 21.0887 163.781 17.9508Z" fill="#363630"/>
<path id="path3752" d="M317.325 49.344C317.325 53.4966 316.188 57.6229 313.806 61.0246C308.776 68.2068 302.029 71.8569 293.872 71.8569C285.715 71.8569 278.967 68.2068 273.936 61.0246C271.556 57.6229 270.42 53.4966 270.42 49.344V15.2448H255.484V45.5212C255.484 52.5059 257.075 58.9882 260.201 64.7933C263.317 70.5768 267.733 75.2153 273.322 78.5747C278.904 81.9277 285.223 83.6314 292.087 83.6314C300.784 83.6314 308.46 80.9966 314.915 75.789L317.396 73.7929V83.8249C317.396 90.5262 315.316 96.1758 311.22 100.618C307.088 105.093 301.218 107.365 293.765 107.365C288.111 107.365 283.302 106.014 279.465 103.352C276.019 100.959 273.502 97.7756 271.969 93.8737L258.302 97.9506C260.874 103.96 265.126 108.93 270.955 112.75C277.295 116.898 284.968 119 293.765 119C305.194 119 314.51 115.604 321.46 108.905C328.393 102.224 331.907 93.7833 331.907 83.8249C331.907 75.8572 331.915 64.2631 331.942 49.0491C331.962 34.746 331.976 23.4307 331.978 15.2448H317.325V49.344Z" fill="#363630"/>
<path id="path3754" d="M399.883 65.1729C394.521 69.7 387.917 71.9988 380.259 71.9988C372.558 71.9988 365.876 69.6947 360.399 65.148C354.825 60.5194 352.073 54.8708 352.226 48.3443C352.423 41.8155 355.276 36.1993 360.706 31.6364C366.073 27.1332 372.651 24.8482 380.259 24.8482C387.958 24.8482 394.653 27.1557 400.151 31.699C405.753 36.3268 408.494 41.9601 408.294 48.4231C408.144 54.9551 405.316 60.5906 399.883 65.1729ZM401.919 17.8906C395.3 14.742 388.012 13.1451 380.259 13.1451C372.509 13.1451 365.27 14.742 358.746 17.8852C352.253 21.0169 347.05 25.3638 343.281 30.8004C339.54 36.2015 337.644 42.1158 337.644 48.3883C337.644 85.2066 337.622 108.463 337.578 117.599H352.155V73.0747L354.639 75.098C357.752 77.6299 361.665 79.7181 366.278 81.3049C370.897 82.8939 375.605 83.7021 380.259 83.7021C392.513 83.7021 402.744 80.2507 410.675 73.4464C418.551 66.6883 422.681 58.2455 422.946 48.3551C423.082 42.0995 421.251 36.1961 417.515 30.8004C413.747 25.3668 408.497 21.0199 401.919 17.8906Z" fill="#363630"/>
<path id="path3756" d="M490.032 65.1488C484.528 69.6922 477.835 71.9972 470.137 71.9972C462.527 71.9972 455.948 69.7146 450.587 65.2091C445.156 60.6486 442.304 55.0323 442.101 48.4927C441.951 41.9748 444.703 36.3252 450.278 31.6996C455.757 27.1531 462.436 24.8513 470.137 24.8513C477.794 24.8513 484.396 27.1454 489.764 31.6749C495.194 36.257 498.023 41.8927 498.173 48.4131C498.372 54.89 495.631 60.5178 490.032 65.1488ZM491.644 17.9508C485.124 14.7597 477.887 13.1458 470.137 13.1458C462.384 13.1458 455.112 14.7535 448.521 17.9238C441.957 21.0779 436.704 25.4217 432.911 30.8422C429.156 36.2076 427.344 42.1164 427.519 48.4161C427.784 58.2654 431.916 66.6859 439.789 73.4446C447.72 80.2489 457.932 83.7003 470.137 83.7003C474.799 83.7003 479.494 82.9162 484.096 81.3713C488.682 79.828 492.581 77.7637 495.688 75.2357L498.173 73.2125V81.7452H512.826V48.4571C512.826 42.1443 510.916 36.2184 507.156 30.8422C503.36 25.4247 498.146 21.0887 491.644 17.9508Z" fill="#363630"/>
<path id="path3758" d="M522.447 7.78721H522.141V5.88928H522.499C523.086 5.88928 523.939 5.91401 523.939 6.82822C523.939 7.76792 522.9 7.78721 522.447 7.78721ZM526.45 12.0381L524.012 8.9118C525.15 8.67969 525.882 7.81119 525.882 6.76003C525.882 5.59441 524.98 4.38232 522.996 4.38232H520.34V12.0381H522.141V9.20986L524.346 12.0381H526.45Z" fill="#363630"/>
<path id="path3760" d="M76.249 15.2449H91.4847V81.739L15.2344 81.742V15.2449H30.4858V66.5025H45.7348V15.2449H60.9813V66.5025L76.249 66.5055V15.2449Z" fill="#363630"/>
<path id="path3762" d="M61.0152 66.4971H76.2503V0.00300035L0 0V66.4971H15.252V15.2395H30.501V66.4971H45.7469L45.7499 15.2395L61.0152 15.2365V66.4971Z" fill="#F7D917"/>
<path id="path3764" d="M522.784 0C518.244 0 514.566 3.67578 514.566 8.2107C514.566 12.7434 518.244 16.4214 522.784 16.4214C527.322 16.4214 531.001 12.7434 531.001 8.2107C531.001 3.67578 527.322 0 522.784 0ZM522.784 14.8432C519.119 14.8432 516.146 11.8726 516.146 8.2107C516.146 4.54878 519.119 1.57815 522.784 1.57815C526.448 1.57815 529.422 4.54878 529.422 8.2107C529.422 11.8726 526.448 14.8432 522.784 14.8432Z" fill="#363630"/>
</g>
</g>
<defs>
<clipPath id="clip0_129_1410">
<rect width="531" height="119" fill="white"/>
</clipPath>
</defs>
</svg>
