<svg width="1250" height="652" viewBox="0 0 1250 652" fill="none" xmlns="http://www.w3.org/2000/svg">
<g id="Frame 334998">
<rect width="1250" height="652" fill="white"/>
<path id="&#208;&#148;&#208;&#176;&#208;&#187; &#208;&#178;&#208;&#190;&#209;&#129;&#209;&#130;&#208;&#190;&#208;&#186;" d="M1151.25 296.555L1157.6 303.921L1157.68 304.02L1157.7 304.138L1158.7 315.66V315.719L1177.84 337.286L1235 375.574L1233.31 354.539L1231.04 345.105L1224.42 338.487L1224.3 338.369L1224.32 338.192L1224.91 328.639L1224.93 328.462L1225.05 328.344L1228.5 325.488L1216.79 311.957L1216.69 311.839V311.681L1216.89 302.681V302.543L1216.99 302.424L1221.83 297.166L1220.53 291.612L1210.78 288.756L1210.62 288.716L1210.54 288.579L1200.86 271.404L1200.69 271.089L1200.98 270.892L1202.52 269.868L1202.83 269.671L1203.05 269.986L1205.91 273.984L1211.21 270.656L1203.33 263.191L1199.38 265.338L1199.19 265.456L1198.99 265.338L1192.72 261.281L1192.62 261.221L1192.58 261.103L1189.25 253.383H1182.16L1181.41 257.716L1181.35 258.07L1181 258.031L1177.55 257.696L1177.33 257.676L1177.23 257.479L1163.47 230.004L1163.43 229.906L1163.45 229.787L1164.22 221.555L1164.26 221.279L1164.54 221.22L1169.86 220.038L1166.11 205.089L1165.84 203.967L1166.74 204.676L1174.55 210.821L1174.75 190.948V190.79L1174.87 190.672L1181.53 183.838L1181.65 183.72H1181.8L1192.33 183.523L1186.3 168.751L1186.28 168.712V168.653L1183.36 137.1L1183.32 136.667L1181.29 114.293L1175.85 111.201L1175.3 110.886L1175.81 110.531L1189.75 100.92L1187.6 93.8688L1160.26 91.5841L1157.07 95.7596L1156.95 95.9368L1156.77 95.9565L1149.48 96.5474L1148.73 101.905L1148.69 102.259L1148.34 102.22L1143.47 101.885L1143.11 101.845V94.1642L1143.39 94.0657L1149.85 91.9189L1152.59 86.2466L1151.13 71.4947L1148.26 70.3917L1145.75 71.9477L1145.16 72.3022L1145.12 71.6326L1144.95 67.0435L1138.68 69.466L1138.42 69.5645L1138.22 69.3676L1134.36 64.9755L1134.24 64.8376L1134.28 64.6406L1135.66 57.9245L1135.8 57.2548L1136.31 57.7078L1141.02 61.8636L1143.8 59.638L1144.08 59.4016L1144.33 59.6774L1148.69 64.424L1151.51 57.9442L1150.92 50.7947L1150.9 50.5978L1151.06 50.4796L1155.57 46.7177L1155.69 46.5996L1155.85 46.6193L1164.32 47.4268L1178.95 36.3776L1176.32 33.2854L1175.65 32.4976L1176.68 32.6355L1182.57 33.4627L1182.36 26.0178L1174.77 27.4161L1174.47 27.4752L1174.35 27.1995L1172.24 22.5907L1162.63 20.7L1161.99 20.5818L1162.41 20.0697L1166.05 15.5398L1161.21 11.9946L1160.77 11.6597L1161.21 11.3446L1165.64 8.21303L1159.16 0L1141.46 10.3992L1140.43 18.7501L1140.41 18.8683L1140.35 18.9471L1135.56 25.1906L1146.25 29.5039L1147.09 29.8584L1146.27 30.2326L1141.36 32.4582L1141.24 32.5173L1141.1 32.4779L1122.32 27.3768L1100.28 41.9711L1067.37 59.8546L1067.33 59.894L1058.42 74.3899L1059.17 78.2502L1059.23 78.6048L1058.87 78.6638L1053.51 80.141L1044.78 87.9207L1050.93 95.5626L1056.15 93.9673L1056.31 93.9279L1056.45 94.0066L1063.92 98.2018L1064.13 98.32L1064.09 98.576L1063.35 105.725L1063.31 106.041L1062.99 106.08L1056.13 106.828L1051.34 109.566L1051.14 109.684L1050.95 109.566L1040.46 102.988V116.578L1040.3 116.696L1029.92 124.476L1025.64 132.63L1025.48 132.925L1025.44 133.004L1023.29 137.14L1023.25 137.258L1023.14 137.317L1012.35 143.383L1012.1 143.521L1011.9 143.324L1003.94 135.781L995.581 134.954L983.854 142.556L975.792 152.424L972.915 162.311L972.856 162.508L972.659 162.567L967.849 164.044L967.692 164.083L967.554 164.024L961.128 160.814L954.604 161.444L951.648 165.324L951.391 165.659L951.076 165.383L948.533 163.197L946.148 165.777L945.872 166.053L945.597 165.777L943.192 163.512L942.896 163.236L943.172 162.961L947.765 158.372L936.155 157.505L929.612 163.177L933.041 174.857L933.1 175.073L932.923 175.251L927.798 180.194L927.128 180.844V171.883H922.536L918.909 175.152L918.396 175.605L918.258 174.935L917.51 171.528L917.47 171.312L917.647 171.154L924.191 165.265L916.938 165.698L896.42 176.098L900.145 180.588L900.381 180.864L900.105 181.12L894.646 186.398L897.07 190.81L900.559 189.057L901.091 188.781L901.13 189.372L901.485 194.513L905.841 199.575L906.275 200.067L905.644 200.225L898.903 201.859L896.538 205.089L898.351 209.422L898.548 209.875L898.056 209.954L892.773 210.84L892.675 210.86L892.576 210.821L884.298 208.339L881.913 217.241L881.814 217.596L881.46 217.537L867.781 215.134V235.676L867.327 235.598L858.32 234.101L858.202 234.081L858.123 234.002L843.577 220.846L843.222 220.511L843.636 220.235L848.741 216.651L839.359 202.686L833.288 199.752L824.379 202.785L824.241 202.824L824.123 202.785L814.011 198.866L812.572 214.366L812.553 214.602L812.336 214.701L794.656 222.244L794.459 222.323L794.281 222.205L787.915 217.891L787.679 217.734L787.757 217.458L788.743 213.913L769.683 213.716L764.716 220.314L764.085 222.382L763.632 223.899L763.336 222.343L762.568 218.325L758.882 215.075L754.703 219.447L754.664 219.487L754.605 219.526L749.323 222.146L748.987 226.321L751.668 229.965L751.707 230.044L751.727 230.142L752.91 236.346L761.72 248.813L761.799 248.912V257.125L766.392 262.62L766.648 262.935L766.332 263.191L755.965 271.424L755.295 276.229L755.275 276.328L755.236 276.407L752.91 279.893L751.077 288.815L750.998 289.169L750.643 289.13L745.518 288.539L737.496 295.058L737.457 295.098L737.418 295.117L734.875 296.437L741.202 306.285L741.241 306.364V306.462L743.429 333.957L743.449 334.134L743.331 334.252L737.753 340.397L741.399 343.214L741.596 343.371L741.557 343.608L740.019 350.935L743.311 354.519L743.429 354.637V359.876L747.371 362.594L747.627 362.772L747.509 363.047L745.518 368.326L745.499 368.385L745.459 368.424L739.665 375.416L739.132 380.202H748.692L748.81 380.281L752.91 383.491L757.404 380.497L757.699 380.301L757.916 380.576L760.084 383.294L760.124 383.255L760.419 383.668L760.577 383.905L760.636 383.984L760.833 384.24L760.794 384.279L764.105 389.282L764.322 389.616L763.987 389.833L760.183 392.256V396.313L764.007 396.608L767.574 394.127L767.929 393.871L768.126 394.265L772.521 402.655L772.561 402.753V402.872L772.206 412.463L777.686 415.555L777.942 415.693L777.883 415.969L775.419 426.171L778.415 432.809L785.451 434.916L785.885 435.034L785.708 435.448L780.346 447.994L779.321 463.179L784.446 468.615L790.083 464.302L790.182 464.223H790.3L798.874 463.869L802.028 458.275L802.284 457.822L802.639 458.177L807.33 462.864L813.243 455.951L822.802 435.428L822.901 435.231L823.098 435.192L829.642 434.109L829.76 434.089L829.858 434.128L830.016 434.187L842.414 439.151L842.591 439.21L842.65 439.387L845.291 447.324L852.584 444.015L852.781 443.917L852.978 444.035L857.729 447.324L857.827 447.383L857.867 447.502L857.926 447.659L866.224 466.449L877.182 486.735L886.131 492.683L886.486 492.9L886.249 493.235L883.726 496.76L887.353 500.384L894.409 496.465L894.764 496.268L894.961 496.622L898.351 502.59L903.791 501.31L904.245 501.192L904.284 501.645L905.092 512.339L910.67 515.51L911.045 515.727L910.788 516.081L907.674 520.493L916.445 533.65L930.026 526.678L930.163 526.599L930.321 526.638L940.827 530.262L953.54 528.253L953.737 528.214L953.875 528.352L972.56 546.826L996.094 571.15L1005.22 567.506L1005.38 567.447L1005.54 567.526L1011.13 570.126L1015.11 568.137L1015.25 568.058L1015.41 568.097L1023.04 570.5L1027.43 569.929L1027.69 569.889L1027.83 570.086L1033.98 579.777L1040.72 585.705L1054.89 578.831L1056.72 573.12L1056.76 573.041L1056.82 572.982L1067.13 561.46L1067.17 561.401L1067.25 561.361L1072.83 558.821L1073.14 558.683L1073.34 558.978L1078.68 567.684L1078.78 567.841L1078.74 568.018L1076.75 574.4L1080.2 584.287L1080.24 584.346V584.425L1079.43 608.67V608.729L1083.31 615.366L1083.63 615.898L1083.02 615.938L1066.97 617.297L1061.31 629.646L1076.87 645.599L1076.96 645.717L1076.98 645.855L1077.42 652L1086.17 643.669L1086.29 643.551H1086.45L1101.07 643.748L1111.75 635.121L1118.22 622.339L1121.33 587.379L1125.67 569.023L1122.73 547.259V547.161L1124.62 522.62V522.581L1121.92 514.88L1109.96 490.635L1106.18 486.065L1106.12 485.987L1106.1 485.888L1102.61 468.891L1100.62 464.144L1100.18 463.1L1101.17 463.632L1111.64 469.305L1111.75 469.364L1111.79 469.501L1115.6 479.507L1121.59 487.168L1128.8 498.69L1133.91 507.041L1139.82 511.571L1139.92 511.65L1139.96 511.768L1143.43 521.734L1150.6 525.141L1150.8 525.24L1150.84 525.437L1151.82 532.566L1159.79 542.67L1160.44 533.65L1159.51 527.977L1159.45 527.544L1159.89 527.505L1165.13 527.15L1167.28 526.225L1167.45 526.146L1167.63 526.225L1173.45 529.238L1168.62 519.154H1161.96L1161.88 519.114L1155.1 516.14L1155.06 516.121L1155.02 516.081L1147.13 510.429L1147.03 510.37L1147 510.251L1141.93 497.312L1139.21 489.335L1139.09 489.02L1139.37 488.862L1144.98 485.691L1145.06 485.652H1145.16L1157.11 485.002L1130.79 467.276L1112.54 450.889L1112.5 450.85L1112.46 450.791L1104.13 435.152L1092.58 427.058L1092.54 427.018L1092.5 426.979L1087.12 420.145L1083.19 421.897L1082.33 426.014L1089.13 430.741L1089.19 430.78L1089.22 430.839L1092.63 435.94L1092.79 436.177L1092.61 436.393L1091.06 438.422L1090.9 438.619L1090.64 438.56L1087.53 437.792L1086.43 442.834L1092.97 447.738L1093.05 447.797L1093.09 447.896L1099.06 461.466L1099.45 462.372L1098.55 461.997L1090.55 458.649L1090.45 458.61L1090.39 458.531L1087.65 455.242L1087.47 455.045L1087.59 454.809L1090.19 449.609L1083.33 446.832L1069.53 444.37L1058.69 449.983L1055.24 465.09L1055.05 465.897L1054.53 465.247L1050.63 460.284L1046 466.193L1045.57 466.764L1045.33 466.074L1041.29 454.336L1032.22 459.89L1032.1 459.969L1031.97 459.949L1025.11 458.827L1024.75 458.767L1024.77 458.413L1025.15 451.854V451.795L1025.19 451.736L1035 427.255L1037.49 402.596L1040.38 390.582L1037.96 380.852L1037.92 380.734L1037.96 380.616L1041.21 371.91L1039.81 362.712L1039.77 362.515L1039.91 362.378L1060.25 342.485L1060.39 342.347L1060.59 342.387L1067.05 343.588L1067.74 340.87L1066.16 338.408L1065.97 338.073L1066.3 337.857L1068.82 336.183L1069.18 335.966L1074.91 332.184L1078.48 329.21L1078.54 329.151L1078.64 329.132L1083.82 327.891L1082.23 317.748L1082.19 317.413L1082.5 317.295L1091 314.596L1097.98 308.51L1098.09 308.412H1098.23L1103.22 308.254L1104.01 308.215L1103.57 308.865L1099.41 314.833L1104.22 318.969L1110.96 311.386L1112.56 299.963L1112.6 299.726L1112.82 299.647L1118.49 297.501L1123.38 291.139L1118.14 287.2L1114.1 292.183L1113.82 292.518L1113.51 292.222L1109.62 288.519L1109.51 288.401L1109.49 288.244L1108.24 267.229L1104.38 254.88L1104.34 254.801L1104.36 254.722L1105.56 245.761L1105.58 245.662L1105.62 245.583L1112.98 235.066L1113.09 234.908L1113.29 234.889L1117.45 234.692L1119.18 229.492L1119.42 228.763L1119.87 229.374L1128.11 240.659L1134.56 239.596L1134.97 234.83L1133.51 225.592L1131.92 218.935L1131.88 218.719L1132.05 218.561L1136.1 214.799L1125.71 202.371L1125.57 202.214L1125.63 202.017L1127.92 194.395L1127.97 194.198L1128.17 194.139L1136.29 191.322L1137.4 190.948L1136.75 191.933L1132.31 198.55L1133.57 204.873L1141.69 210.486L1144.87 210.663L1145.24 210.683L1145.22 211.057L1145.02 216.395L1148.12 217.123L1148.49 217.222L1148.41 217.596L1145.22 233.53L1148.89 239.635L1148.93 239.714V239.812L1150.17 258.858L1153.05 271.168L1156.85 283.143L1156.91 283.359L1156.75 283.536L1152.4 288.303L1153.78 292.852L1153.83 293.049L1153.72 293.207L1151.25 296.555ZM1174.45 227.936L1171.97 235.401L1181.47 246.056L1182.79 230.772L1177.74 228.507L1174.45 227.936ZM1234.27 536.565L1232.4 538.377L1232.34 541.154L1233.44 543.675L1236.79 542.493L1236.12 539.204L1234.27 536.565ZM1220.46 535.678L1218.72 537.037L1220.2 541.725L1220.24 541.804V541.882L1219.73 547.85L1221.22 552.104L1223 551.317L1223.59 540.74V540.622L1223.69 540.523L1225.44 538.495L1225.82 535.521L1223.67 534.162L1220.46 535.678ZM1235.3 503.023L1231.93 502.866L1232.2 505.918L1232.22 506.115L1232.06 506.234L1230.21 507.829L1226.49 511.689L1226.76 520.966L1227.87 528.371L1229.58 529.218L1230.98 519.095L1231.26 514.801V514.683L1231.32 514.584L1234.09 510.606L1236.32 507.14L1235.3 503.023ZM1240.78 479.31L1237.68 482.402L1237.96 494.771L1238.1 497.804H1241.43L1243.95 490.536L1243.42 483.623L1240.78 479.31ZM1243.89 466.094L1250 464.499L1247.99 458.886L1244.5 457.861L1241.88 460.638L1243.89 466.094ZM1244.07 453.962L1246.65 453.056L1247.24 448.408L1243.91 447.659L1242.29 451.027L1244.07 453.962ZM1243.02 440.392L1246.29 437.28L1244.26 433.498L1242.12 433.203L1240.36 436.571L1243.02 440.392ZM1237.58 412.916L1242.25 410.789L1242.92 408.248L1236.44 405.373L1235.89 409.174L1237.58 412.916ZM1237.07 387.805L1234.37 385.323L1231.1 384.358L1230.27 394.146L1234.11 399.129L1237.78 397.396L1237.07 387.805ZM1236.34 383.432L1238.35 381.187L1234.78 378.036L1233.21 379.493L1232.66 382.014L1236.34 383.432ZM1223.92 386.721L1227.29 388.888L1228.91 384.791L1227.06 381.738L1223.37 384.121L1223.92 386.721ZM851.165 153.369L854.102 152.207L850.85 146.259L845.745 143.245L846.868 148.268L851.165 153.369ZM857.374 148.307L857.413 148.366L857.433 148.445L858.655 153.093L865.534 155.023L871.999 154.492L871.526 148.445L871.486 147.972L871.959 148.012L875.862 148.465L879.173 143.009L879.311 142.773L879.587 142.832L883.431 143.639L886.407 140.311L883.47 137.376L877.557 135.682L877.439 135.643L877.36 135.544L873.24 130.699L872.827 130.227L873.418 130.069L876.079 129.38L876.355 129.301L876.512 129.537L879.962 134.776L887.018 136.214L887.195 128.139L884.869 124.2L876.749 123.668L872.728 126.504L872.61 126.603L872.452 126.563L866.086 125.519L865.534 130.128L869.023 133.772L869.279 134.028L869.042 134.304L867.682 135.879L867.426 136.175L867.13 135.919L861.454 131.231L853.944 131.94L853.412 138.085L854.102 144.112L857.374 148.307ZM884.653 95.3459L883.509 99.5411L886.998 100.309L888.338 96.6852L884.653 95.3459ZM908.936 127.056L913.528 118.587L910.434 111.831L907.142 115.455L907.024 115.593L906.827 115.573L900.598 115.061L898.982 117.819L898.864 118.015H895.355L894.882 121.108L894.843 121.462L894.488 121.442L890.526 121.285L893.148 126.878L908.936 127.056ZM901.525 157.446L896.439 156.757L892.478 155.851L889.698 160.046L888.062 161.877V169.46L896.38 167.707L904.264 163.611L901.525 157.446ZM882.189 163.177H885.816L886.545 157.21L883.036 154.255L880.75 156.54L882.189 163.177ZM861.454 173.478L865.218 175.802L868.569 174.876L868.195 170.583L859.739 169.48L861.454 173.478ZM750.308 217.478L749.007 214.031L745.459 213.893L743.587 216.769L743.055 218.758L744.75 220.885L750.308 217.478ZM757.68 203.297L754.211 202.746L752.259 207.63L757.285 211.628L759.552 208.063L760.38 204.971L757.68 203.297ZM1004.71 132.137L1003.56 128.198L999.819 128.946L998.696 132.137L1001.53 134.008L1004.71 132.137ZM1055.11 41.8333L1046.06 31.1189V25.3481L1050.99 17.9623L1059.25 17.2927L1062.6 21.8423L1059.68 27.5146L1059.64 27.554L1059.62 27.5934L1057.22 39.6667L1055.11 41.8333Z" fill="#EBEBEB"/>
<path id="&#208;&#191;&#208;&#190;&#208;&#178;&#208;&#190;&#208;&#187;&#208;&#182;&#209;&#140;&#208;&#181;" d="M387.207 346.857L386.083 349.418L379.559 358.045L369.763 367.656L361.17 371.556L360.953 371.654L360.933 371.89L360.736 376.164V376.263L360.776 376.361L363.318 381.285L359.869 385.303L359.79 385.382L359.77 385.52L359.199 391.035L357.149 393.595L349.107 393.969L348.811 393.989L348.733 394.284L347.589 399.444L344.929 401.158L341.598 397.475L341.243 397.081L340.967 397.514L336.315 404.88L329.141 405.629L328.983 405.649L328.885 405.767L322.321 413.527L322.163 413.704L322.242 413.901L323.504 417.801L323.523 417.899L323.622 417.978L326.638 420.381L326.677 420.42L326.716 420.44L333.851 423.571L333.891 423.591L333.93 423.611L335.862 423.906L335.369 427.392L332.846 432.06L332.787 432.159L332.807 432.297L333.162 434.778L333.181 434.877L333.24 434.955L335.586 438.205L334.403 440.588L332.787 441.475L328.924 437.772L327.229 436.551L327.15 436.492L327.032 436.472L324.41 436.236L324.292 436.216L324.213 436.255L321.611 437.457L319.719 435.94L319.601 430.997V430.878L319.522 430.78L317.157 427.668L317.039 427.53L316.861 427.511L313.826 427.255H313.708L313.589 427.314L308.307 430.504L308.189 430.583L308.149 430.721L306.77 434.719L306.73 434.857L306.789 434.995L309.667 441.455L309.707 441.534L309.766 441.593L312.308 443.74L312.367 443.799L312.446 443.818L323.582 447.521L323.74 447.561L323.878 447.482L326.381 446.182L327.86 445.493L330.225 447.954L328.589 449.254L325.061 450.338L324.864 450.397L324.805 450.594L323.582 454.946H322.124L318.675 453.174L318.478 453.075L318.3 453.174L311.303 457.093L311.204 457.152L311.165 457.251L307.105 464.164L307.065 464.223L307.046 464.302L306.454 468.241L301.566 469.364L301.29 469.423L301.251 469.698L300.758 473.421L300.127 477.32L300.068 477.636L300.403 477.734L308.741 480.295L310.219 483.485L309.509 485.632L306.277 488.153L306.06 488.33L306.159 488.586L307.755 493.333L307.795 493.471L307.893 493.53L313.786 506.391L310.929 510.507L307.598 512.989L299.832 510.468L298.038 506.923L297.959 506.765L297.802 506.726L295.831 506.056L295.653 505.997L295.495 506.096L292.559 507.868L289.346 506.785L285.542 502.472L284.734 499.242L285.502 493.845L285.542 493.589L285.325 493.451L281.994 491.423L279.471 488.921L279.195 488.645L278.899 488.941L276.574 491.462L273.105 490.792L271.587 488.192L271.784 485.474V485.199L271.548 485.081L265.437 482.422L265.378 482.402H265.319L262.126 482.205H261.988L261.89 482.284L258.224 484.726L254.971 482.323L253.927 476.927L253.907 476.867V476.828L252.626 474.11L252.547 473.953L252.37 473.913L250.812 473.46L250.635 473.421L250.477 473.5L245.786 476.355L243.796 472.397L245.609 467.945L245.668 467.847L245.629 467.709L244.032 460.678L242.455 455.262L242.396 455.065L242.219 455.005L238.336 453.647L236.779 451.874L238.021 449.195L238.06 449.117V449.038L238.237 446.674V446.399L238.001 446.3L234.414 444.587L234.177 444.468L234 444.646L232.206 446.261L229.112 446.93L226.549 440.766L226.786 436.157L226.806 435.625L226.313 435.743L223.297 436.393L218.665 437.614L212.121 438.048L210.387 436.689L210.249 436.61H210.091L208.061 436.787L207.923 436.807L207.825 436.886L204.415 439.702L198.265 438.501L198.048 438.461L197.91 438.619L195.525 441.179L195.486 441.219L195.447 441.278L193.2 445.788L188.45 447.954L186.045 443.602L187.109 440.234L187.129 440.214V440.155L187.484 436.472L187.503 436.295L187.365 436.157L183.995 432.494L183.759 423V422.685L183.443 422.626L179.324 421.779L177.668 419.396L177.451 413.586L177.432 413.034L176.919 413.251L173.825 414.571L171.617 414.413L171.775 411.419L174.85 407.953L174.948 407.835V402.32L174.83 402.202L167.774 395.368L167.695 395.289H167.596L163.753 394.481L161.269 391.231L160.875 386.564L162.274 385.323L162.393 385.224L162.412 385.067L162.787 378.922L167.537 378.114L167.616 378.095L167.655 378.055L177.924 372.796L178.003 372.737L178.043 372.659L179.639 370.571L179.718 370.453V370.335L179.816 361.865L180.763 356.311L185.059 351.21L187.444 352.096L187.523 352.136H187.602L190.302 352.018H190.44L190.559 351.939L198.541 344.829L203.094 341.618L203.35 341.441L203.232 341.165L200.65 334.154L205.913 331.003L212.87 330.766H212.989L213.068 330.727L221.05 325.941L223.967 325.35L224.125 325.311L224.223 325.192L225.997 322.652L230.038 322.337L231.97 324.129L232.167 324.346L232.423 324.208L235.715 322.337L249.748 322.435H249.866L249.965 322.376L251.64 321.273L255.504 321.391L256.686 324.72L256.745 324.877L256.903 324.936L260.648 326.571L264.097 330.057L264.373 330.333L264.649 330.057L269.912 324.7L282.428 324.936H282.822L282.842 324.543L283.078 316.507L285.562 313.808L290.765 308.432L291.061 308.156L290.765 307.88L286.586 303.961L287.296 302.188L293.051 302.424H293.17L293.288 302.365L299.832 298.091L304.207 297.402L307.44 301.322L307.913 306.718L296.343 319.619L296.166 319.816L296.264 320.052L297.486 322.967V331.81L297.644 331.948L300.147 333.957L300.462 334.193L300.699 333.898L305.587 328.423L319.936 333.957L320.094 334.016L320.251 333.957L325.751 331.456L325.889 331.397L325.948 331.239L328.707 324.424L337.636 325.271L344.594 333.11L344.653 333.169L344.712 333.189L352.675 337.384L352.734 337.423H352.813L364.166 338.704L364.284 338.723L364.402 338.664L368.522 336.399L380.013 345.814V345.853H380.072L380.151 345.932L380.249 346.011H380.367L380.387 345.873H380.407L380.387 346.011L387.207 346.857Z" fill="#EBEBEB"/>
<path id="&#209;&#129;&#208;&#184;&#208;&#177;&#208;&#184;&#209;&#128;&#209;&#140;" d="M794.201 551.474L794.161 551.356L792.723 546.472L792.072 537.293L793.748 527.8L793.767 527.741L793.748 527.682L793.137 523.92L793.097 523.625L792.802 523.585L789.53 523.191L789.254 523.152L789.135 523.369L786.494 528.037L786.455 528.096L786.435 528.155L784.779 538.515L784.03 540.74L783.991 540.878L780.995 549.662L777.033 560.475L772.382 567.664L768.617 574.163L768.597 574.203L768.578 574.242L767.139 578.556L760.674 584.385L760.635 584.425L760.595 584.464L757.422 589.27L748.631 595.257L744.433 595.848L744.354 595.868L744.295 595.907L741.358 597.68L741.062 597.877L741.22 598.192L742.56 601.048L742.679 601.264H749.971L750.05 601.225L760.891 596.439L760.97 596.4L761.029 596.341L764.32 592.638L764.399 592.559L764.419 592.441L765.641 585.528L770.174 585.922L770.391 585.941L770.509 585.764L774.392 580.446L780.345 578.615L780.483 578.575L780.561 578.457L784.484 572.076L784.523 571.997V571.898L784.72 568.314L787.835 567.546L788.032 567.506L788.11 567.309L789.313 564.316L789.352 564.198L789.313 564.06L788.308 560.869L789.372 559.018L792.19 556.398L792.25 556.339L792.289 556.26L794.122 551.533L794.201 551.474ZM908.027 551.77L911.831 561.854L906.332 567.368L906.234 567.467L906.214 567.585L902.981 587.773L902.962 587.891L903.001 587.99L906.096 595.572L898.724 600.693L898.606 600.772L898.566 600.89L895.491 609.281L873.83 605.814L873.633 605.775L873.495 605.893L868.429 610.541L864.783 607.094L864.665 606.976L864.487 606.996L852.622 607.587H852.484L852.366 607.685L843.792 615.642L843.713 615.721L843.673 615.819L841.84 621.748L836.085 621.945H835.987L835.888 621.984L817.873 632.817H817.814L790.771 630.355L787.381 623.993L787.263 623.796L787.046 623.776L783.636 623.638L783.36 623.619L777.625 623.363L775.279 619.266L775.161 619.049L774.905 619.069L765.779 619.66L756.949 616.863L756.771 616.824L756.614 616.922L745.064 623.796L736.726 623.993L736.687 623.973L724.9 617.769L721.687 605.302L721.628 605.066L721.392 605.026L705.761 601.422L688.318 594.41L687.904 594.233L687.786 594.666L686.564 599.334L682.641 599.531L682.287 599.551L682.267 599.905L682.07 603.825L679.034 604.77L678.778 604.849L678.758 605.125L678.187 613.929L678.167 614.086L678.266 614.204L683.312 620.271L680.059 628.109L675.684 631.812L670.914 633.467L667.898 630.63L667.8 630.552L667.681 630.532L661.906 629.724L646.789 628.031L641.427 625.332L640.442 619.266L640.402 618.99L640.127 618.931L626.251 615.918L624.753 613.673L624.634 613.476L624.418 613.495L615.39 614.086H615.331L615.292 614.106L588.624 624.131L588.584 624.151L588.545 624.19L581.686 629.311L572.107 629.705L571.87 629.724L571.772 629.941L569.604 634.668L561.956 633.821L557.127 626.652L555.905 622.28L555.787 621.807L555.353 622.023L548.455 625.647L545.813 622.398L545.715 622.28L545.577 622.24L539.033 620.822L538.836 614.027V613.81L538.639 613.692L532.253 610.108L531.504 602.663V602.604L531.464 602.545L528.055 595.474L527.995 595.356L527.877 595.297L523.561 593.426L523.423 593.367L523.285 593.426L514.573 596.675L503.101 590.432L502.116 585.114L502.077 584.917L501.879 584.838L499.12 583.696L498.824 583.578L498.647 583.854L495.158 588.876L489.561 589.743L479.528 541.666L479.508 541.607L479.469 541.548L470.343 526.481L473.832 522.817L474.443 522.167L473.536 522.148L463.642 521.931H463.366L463.307 522.069L454.496 523.664L454.378 523.684L454.299 523.743L451.145 526.362L447.479 527.19L443.518 525.023L443.38 524.944L443.222 524.984L438.472 526.422V522.719L442.808 519.154L443.123 518.878L442.847 518.583L440.088 515.491L440.009 515.392L439.891 515.353L436.718 514.565L432.342 514.368L431.948 509.897L431.908 509.621L431.632 509.562L423.098 507.573L422.211 503.87L426.173 499.32L426.311 499.143L426.232 498.927L425.069 495.44L426.823 493.471L426.941 493.353V493.195L426.764 488.527L426.744 488.252L426.468 488.173L424.083 487.483L425.424 484.194L432.204 477.833L432.303 477.754L432.342 477.636L433.406 472.83L437.132 468.733L442.276 469.758L442.552 469.797L442.69 469.58L444.227 467.177L444.267 467.118L444.286 467.059L445.213 463.041L445.252 462.923L445.213 462.805L443.656 458.61L443.596 458.433L443.419 458.374L439.142 456.739L438.649 454.986L440.64 452.603L440.719 452.504L440.738 452.386L441.369 446.143L448.071 439.663L451.343 442.952L448.879 446.418L448.524 446.93L449.115 447.049L452.722 447.718L460.173 453.036L460.291 453.134L460.449 453.115L466.105 452.288L471.191 455.143L471.27 455.183H471.368L476.966 455.459H477.084L477.202 455.38L484.712 450.239L492.064 446.044L492.221 445.946L492.261 445.768L493.069 441.514L496.873 439.052L502.077 439.682L502.412 439.722L502.51 439.407L506.906 425.384L512.602 421.07L518.732 422.843L527.542 428.692L527.641 428.751H527.759L541.063 428.948L550.465 435.842L550.662 435.999L550.879 435.881L561.995 429.52L567.613 433.537L567.731 433.636L567.889 433.616L574.649 432.769H574.689L574.728 432.75L582.258 429.539L582.415 429.48L582.474 429.323L584.031 425.305L584.15 424.99L583.854 424.812L575.595 420.085V410.356L585.628 397.613L585.707 397.514L585.726 397.396L586.337 389.38L592.862 380.379L592.96 380.261L592.921 380.104L591.64 372.422L591.6 372.265L591.482 372.166L584.189 366.711L586.022 356.351L586.062 356.193L585.963 356.055L581.035 349.3L582.573 334.745L582.593 334.587L582.494 334.469L576.384 326.532L578.808 319.264L578.848 319.126L578.788 318.988L576.522 313.612L584.091 311.583L584.288 311.544L584.366 311.347L587.895 302.385L587.934 302.267L587.914 302.149L586.062 291.553L586.022 291.297L585.766 291.237L577.291 289.11L569.958 279.44L571.338 273.905L582.77 268.785L582.947 268.706L582.987 268.509L584.268 263.467L584.307 263.329L584.248 263.211L579.419 252.93L580.543 246.824L585.904 245.918L586.416 245.839L586.2 245.367L581.233 234.869L581.134 233.786L586.83 233.451L594.32 247.415L594.438 247.612H602.855L602.618 247.06L599.918 240.797L599.878 240.718L599.819 240.679L593.473 234.554L593.965 219.92L597.06 214.346L607.211 214.543L624.654 217.399L624.733 217.419L624.812 217.399L630.528 215.961L631.04 215.843L630.784 215.41L626.802 208.201L629.109 198.826L634.351 194.217L641.211 194.02H641.329L641.447 193.942L650.376 186.851L663.266 185.079L663.621 185.039L663.601 184.685L663.404 178.638L674.856 178.441L675.822 181.73L675.881 181.967L676.117 182.006L683.292 183.326L683.489 183.365L683.627 183.227L686.978 180.076L692.418 181.218L693.383 181.415L692.832 180.608L690.131 176.649L689.914 173.931L698.863 173.34L699.336 173.301L699.218 172.848L697.325 165.659L706.254 152.404L711.97 150.277L718.356 155.595L715.518 159.671L715.143 160.203L715.794 160.282L725.137 161.424L721.746 171.154L721.53 171.784L722.2 171.666L725.905 171.055L726.063 171.016L726.161 170.878L730.399 164.832L742.915 165.245L756.2 180.371L751.863 195.635L742.304 212.849L725.432 230.3L725.314 230.418V230.575L725.176 236.228L725.137 237.784L725.905 236.425L728.054 232.643L736.45 230.181L736.509 230.162L736.568 230.122L742.58 225.514L747.981 222.815L747.685 226.597L747.665 226.735L747.764 226.853L750.464 230.477L751.647 236.661L751.666 236.74L751.706 236.799L760.516 249.325V257.598L760.615 257.716L764.852 262.797L754.879 270.715L754.761 270.813L754.741 270.971L754.13 275.796L751.804 279.282L751.765 279.341L751.745 279.42L749.971 287.87L745.221 287.318L745.044 287.298L744.926 287.417L736.667 294.133L733.395 295.807L733.001 296.004L733.237 296.358L739.959 306.62L742.107 333.701L736.194 340.24L735.918 340.555L736.253 340.831L740.215 343.864L738.697 351.092L738.658 351.289L738.796 351.427L742.146 355.09V360.487L742.324 360.605L746.108 363.225L744.433 367.695L738.52 374.845L738.441 374.943L738.421 375.062L737.751 380.97L737.712 381.403H748.178L752.534 384.811L752.75 384.988L752.987 384.831L757.343 381.935L759.472 384.574L762.566 389.282L759.077 391.488L758.88 391.606V397.436L759.235 397.475L764.103 397.849L764.241 397.869L764.36 397.79L767.395 395.663L771.258 403.049L770.904 412.936L770.884 413.172L771.081 413.29L776.462 416.304L774.077 426.191L774.037 426.309L774.097 426.427L777.349 433.656L777.428 433.813L777.605 433.853L784.129 435.802L779.103 447.502L779.064 447.561V447.62L777.94 463.396L777.92 463.573L778.039 463.691L783.893 469.895L784.129 470.151L784.405 469.935L790.417 465.346L799.207 464.991L799.424 464.972L799.542 464.775L802.4 459.693L806.953 464.243L807.249 464.538L807.525 464.223L814.01 456.68L814.049 456.64L814.069 456.601L823.569 436.275L829.482 435.29L841.466 440.076L844.285 448.526L844.422 448.939L844.817 448.742L852.504 445.256L856.702 448.152L865.02 466.961L875.801 486.912L875.505 487.109L875.998 487.444L876.136 487.543L876.176 487.602L876.373 487.976L876.589 487.838L884.631 493.195L882.187 496.602L881.99 496.878L882.227 497.115L886.78 501.664L886.977 501.861L887.233 501.723L894.112 497.902L897.384 503.713L897.522 503.969L897.798 503.91L902.922 502.708L903.671 512.871L903.691 513.068L903.888 513.186L909.072 516.14L906.135 520.296L905.977 520.513L906.135 520.729L915.182 534.28L905.682 540.858L905.603 540.898L905.563 540.976L900.498 550.352L900.222 550.864L900.813 550.923L908.027 551.77ZM618.958 177.575L619.076 175.29L616.08 175.054L615.252 177.082L617.046 179.584L618.958 177.575ZM611.882 187.245L615.134 185.276L613.301 182.085L610.581 181.297L607.92 183.602L609.694 185.729L611.882 187.245ZM624.555 201.899L626.467 199.122L623.452 196.896L621.737 198.117L622.565 200.323L624.555 201.899ZM622.644 203.691L619.766 201.82L619.648 204.597L621.5 205.838L622.644 203.691ZM615.469 212.298L617.361 213.677L618.583 211.352L616.455 208.969L615.469 212.298ZM608.571 208.871L611.685 211.746L613.813 209.619L613.005 206.429L610.305 205.72L608.571 208.871ZM671.21 170.209L672.845 171.981L674.915 170.051L672.53 167.53L671.21 170.209ZM652.386 160.243L652.662 156.914L650.041 153.881L648.03 155.614L648.306 157.997L652.386 160.243ZM679.921 163.079L678.207 159.514L674.186 162.094L677.477 164.517L679.921 163.079ZM723.855 143.679L723.56 141.138L717.627 137.514L717.154 139.09L717.824 142.339L723.855 143.679ZM692.496 148.228L699.75 142.399L699.848 142.32L699.967 142.3L707.417 141.788L711.497 137.711L712.01 128.336L707.594 122.723L704.263 126.051L703.987 126.327L703.712 126.032L702.371 124.613L702.253 124.495V124.318L702.529 118.725L695.985 122.27L695.078 133.772V133.851L695.039 133.929L690.703 141.827L692.496 148.228ZM685.815 110.255L685.696 109.862L684.001 103.421L673.851 108.424L670.263 117.267L670.086 120.359L673.851 122.033L673.89 122.053L673.929 122.092L680.454 127.706L687.845 132.748L691.629 130.719L692.437 125.539L689.836 122.467L689.639 122.25L689.796 122.014L692.851 117.07L693.324 111.043L688.495 106.356L688.101 109.31L688.062 109.566L687.825 109.645L686.229 110.137L685.815 110.255ZM666.44 113.82L670.323 111.674L671.545 107.577L663.207 104.406L659.916 106.178L660.881 109.98L666.44 113.82ZM671.111 92.6674L670.993 92.8052L666.873 98.2806V101.747L672.412 106.769L683.154 101.924V97.9457L683.351 97.8276L687.451 95.602L685.854 92.2931L683.252 84.9073L678.463 80.6531L674.324 84.8089L674.284 84.8482L674.245 84.8679L670.027 87.645L671.032 92.5098L671.111 92.6674ZM666.716 79.3335L661.019 79.4517L660.467 84.021L668.667 85.5179L666.716 79.3335ZM597.572 196.502L596.646 193.036L593.906 193.863L593.433 196.167L595.424 198.747L597.572 196.502ZM590.043 228.665L589.274 222.067L586.574 220.668L583.637 225.061L587.323 229.847L590.043 228.665ZM579.577 232.289L577.961 226.656L573.447 229.118L572.146 231.58L575.793 232.939L579.577 232.289ZM566.332 217.301L566.923 215.134L564.853 212.83L562.232 213.657L563.158 216.926L566.332 217.301ZM791.954 546.649L793.353 551.435L791.599 555.925L788.82 558.525L788.781 558.565L788.741 558.604L787.559 560.672L787.48 560.81L787.519 560.967L788.524 564.198L787.46 566.876L784.247 567.684L783.971 567.743L783.952 568.018L783.735 571.8L779.931 577.984L773.998 579.816L773.88 579.855L773.801 579.974L769.977 585.213L765.306 584.799L764.951 584.76L764.892 585.114L763.63 592.264L760.477 595.809L749.794 600.536H743.171L742.107 598.231L744.689 596.695L748.887 596.104L748.986 596.085L749.065 596.045L757.993 589.959L758.052 589.92L758.092 589.861L761.285 585.016L767.789 579.146L767.868 579.087L767.908 578.989L769.366 574.616L773.111 568.176L777.782 560.967L777.822 560.928L777.842 560.889L781.803 549.997L784.839 541.055L784.878 540.898L785.607 538.731L787.263 528.391L789.746 523.999L792.447 524.314L792.999 527.721L791.323 537.195L791.304 537.234V537.274L791.954 546.531V546.57V546.649Z" fill="#EBEBEB"/>
<path id="&#209;&#131;&#209;&#128;&#208;&#176;&#208;&#187;" d="M591.738 379.925L585.372 388.689L585.273 388.808L585.214 388.906L585.194 389.024L584.583 397.021L574.531 409.803L574.452 409.901V420.754L574.65 420.852L582.691 425.481L581.509 428.533L574.492 431.547L568.047 432.335L562.272 428.199L562.055 428.061L561.838 428.179L550.721 434.56L541.536 427.824L541.458 427.746H541.32L527.996 427.549L519.382 421.798L519.343 421.778L519.264 421.758L512.562 419.769L512.385 419.71L512.227 419.828L505.999 424.555L505.9 424.634L505.861 424.752L501.584 438.401L496.755 437.81L496.617 437.79L496.479 437.869L492.162 440.686L492.005 440.784L491.985 440.942L491.177 445.156L484.732 448.839L484.712 448.702L484.18 449.056L476.572 454.275L471.565 454.059L466.303 451.104L466.184 451.045L466.066 451.065L460.449 451.892L453.235 446.752L453.176 446.693H453.097L450.436 446.141L452.565 443.108L452.742 442.852L452.506 442.616L448.189 438.283L447.913 438.027L447.637 438.283L440.147 445.531L440.029 445.609V445.767L439.398 452.05L437.289 454.571L437.171 454.728L437.211 454.925L437.92 457.466L437.96 457.663L438.157 457.742L442.473 459.396L443.813 463.02L443.025 466.605L441.803 468.515L436.757 467.511L436.521 467.471L436.363 467.629L432.204 472.238L432.125 472.317V472.435L431.081 477.24L424.438 483.445L424.359 483.504L424.34 483.582L422.783 487.561L419.117 486.99L414.524 479.19L414.406 478.993H414.169L408.493 479.112H408.414L408.335 479.131L400.983 482.479L381.49 478.718L376.109 475.862L375.892 475.744L375.695 475.901L371.97 478.816L365.347 474.68L365.288 474.66L365.229 474.641L353.62 471.942L353.186 471.883V471.903L353.009 471.864L341.833 471.155L336.689 465.62L336.511 465.443L336.275 465.522L333.299 466.388L333.2 466.428L333.121 466.506L329.554 470.249L329.396 470.406L329.455 470.623L330.992 475.98L331.012 476.019L331.032 476.059L334.58 481.889L331.465 484.784L326.755 481.101L326.656 481.022H326.538L322.97 480.825H322.872L322.773 480.884L319.501 482.696L319.324 482.795L319.304 483.011L318.713 488.408L310.987 489.038H310.809L310.711 489.196L308.681 491.854L308.582 491.795L307.518 488.585L310.474 486.281L310.573 486.202L310.592 486.084L311.499 483.405L311.539 483.267L311.479 483.129L309.705 479.289L309.627 479.131L309.469 479.092L301.486 476.65L301.999 473.557L302.413 470.367L307.301 469.224L307.577 469.165L307.596 468.89L308.207 464.675L312.13 457.959L318.555 454.374L321.67 455.989L321.748 456.028H321.847L324.212 456.087L324.527 456.107L324.606 455.812L325.868 451.301L328.982 450.336L329.041 450.317L329.1 450.277L331.682 448.268L332.037 448.012L331.722 447.697L328.351 444.191L328.154 443.975L327.898 444.113L325.927 445.019L323.66 446.22L313.115 442.754L310.77 440.843L308.05 434.738L309.213 431.33L314.022 428.415L316.446 428.632L318.437 431.251L318.555 436.313V436.49L318.693 436.609L321.275 438.657L321.472 438.814L321.689 438.736L324.527 437.416L326.715 437.633L328.194 438.677L332.392 442.734L332.589 442.951L332.845 442.793L335.191 441.493L335.309 441.434L335.348 441.316L336.886 438.263L336.984 438.046L336.846 437.869L334.343 434.521L334.028 432.354L336.432 427.923L336.452 427.864L336.472 427.785L337.142 423.255L337.221 422.861L336.827 422.802L334.323 422.448L327.405 419.395L324.587 417.149L323.542 413.919L329.613 406.77L336.846 406.002H337.043L337.142 405.844L341.439 399.049L344.514 402.476L344.73 402.713L345.026 402.535L348.554 400.251L348.692 400.152L348.732 399.995L349.816 395.13L357.601 394.756L357.779 394.736L357.897 394.598L360.321 391.565L360.4 391.467L360.42 391.368L360.972 385.853L364.638 381.619L364.795 381.422L364.677 381.185L361.977 375.966L362.135 372.421L370.295 368.738L370.373 368.699L370.413 368.659L380.504 358.792L387.147 349.988L387.166 349.968L387.186 349.909L388.605 346.679L401.811 324.068L411.745 315.225L411.824 315.146L411.844 315.048L413.342 309.671L422.448 301.557L424.281 304.432L424.399 304.609H424.635L430.627 304.294H430.785L430.884 304.196L437.289 298.523L447.144 298.366H447.282L447.401 298.267L454.595 292.339L468.747 291.709H468.924L469.042 291.571L472.807 287.198L478.424 285.327L478.543 285.288L478.622 285.17L482.209 279.655L482.288 279.498L482.248 279.32L480.08 272.191L482.938 267.089L485.717 262.166L485.816 261.969L485.717 261.791L483.056 257.045L487.609 253.263L495.572 266.085L497.583 274.771L497.602 274.83L497.642 274.889L499.672 278.119L499.909 278.513L500.263 278.198L506.965 272.033L507.221 271.797L507.044 271.521L505.013 268.527L503.989 264.844L505.96 259.369L506.038 259.132L505.861 258.975L500.086 253.007L500.303 249.698L506.984 247.67L507.142 247.63L507.221 247.492L511.853 239.201L511.991 238.984L511.833 238.767L507.438 232.977L512.129 228.526L520.663 226.497L520.762 226.458L520.841 226.379L526.537 220.903L533.948 211.45L540.176 206.683L543.113 207.865L543.961 208.22L543.645 207.353L542.739 205.088L543.251 199.081L550.091 199.593L551.096 207.865L545.38 208.613L544.69 208.712L545.104 209.244L550.918 216.925L549.243 227.954L541.221 235.577L541.063 235.734L541.103 235.951L542.483 242.45L541.063 247.591L528.547 277.272L528.508 277.37L528.528 277.489L529.73 285.387L522.28 300.276L511.419 307.249L504.462 309.986L492.261 304.393L491.709 304.137V309.474L491.906 309.592L510.532 321.075L510.808 321.252L511.025 321.016L516.603 315.127L524.842 312.113L524.921 312.094L524.98 312.035L533.987 302.837L534.086 302.738V302.581L534.717 290.626L540.393 285.15L550.682 286.627L553.619 295.451L547.114 306.796L547.036 306.953L547.095 307.111L549.342 315.54L549.44 315.915L549.815 315.836L556.615 314.26L557.6 314.024L556.733 313.512L553.264 311.562L551.529 308.115L557.443 301.005L557.521 300.887V291.394L557.443 291.275L549.322 281.585L549.204 281.447H538.836L538.205 271.56L548.218 255.843L548.277 255.745V255.627L548.08 239.535L552.259 233.253L556.516 232.031L556.615 232.012L556.674 231.953L560.576 228.447L560.655 228.368L560.695 228.289L563.336 220.943L565.977 219.761L565.129 231.027L559.69 237.664L559.591 237.802L559.611 237.96L559.985 244.873L560.005 245.03L560.123 245.149L572.028 255.725L572.738 256.355L572.678 255.41L572.363 250.269L572.343 250.132L572.245 250.013L565.129 242.293L567.081 235.518L573.388 241.249L573.861 241.662L574.039 241.052L575.872 234.454L580.129 234.198L580.188 234.946V235.005L580.228 235.084L584.8 244.873L579.932 245.68L579.676 245.72L579.616 245.996L578.375 252.909L578.355 253.047L578.394 253.145L583.223 263.387L582.12 267.779L570.688 272.9L570.51 272.959L570.451 273.156L568.874 279.458L568.835 279.635L568.953 279.793L576.699 289.995L576.778 290.113L576.916 290.153L585.175 292.201L586.909 302.088L586.594 302.856L586.456 303.172L583.598 310.439L575.517 312.606L575.083 312.724L575.241 313.118L577.744 319.066L575.28 326.471L575.221 326.668L575.339 326.846L581.528 334.862L579.991 349.397L579.971 349.554L580.07 349.673L584.958 356.409L583.105 366.906L583.066 367.143L583.243 367.28L590.674 372.835L591.738 379.925Z" fill="#EBEBEB"/>
<path id="&#209;&#142;&#208;&#179;" d="M38.0406 400.825L37.8041 402.833L35.6557 401.888L35.4192 401.79L35.2221 401.967L32.3444 404.567L26.4116 400.884L26.6087 399.013V398.934L26.589 398.855L25.9977 396.767L25.9583 396.59L25.8006 396.511L23.9282 395.566L23.6916 395.448L23.4945 395.625L22.3711 396.57L19.6708 395.605L19.5525 395.566L19.4342 395.605L17.6997 395.979L14.8418 392.415L14.7629 392.296L14.625 392.257L10.88 391.41L10.7618 391.371L10.6435 391.41L8.49509 392.336L3.44928 391.666L0.689856 388.101L0.886958 386.27L0.906668 386.132L0.827828 386.014L0 384.792L1.06435 383.729L2.06957 383.906L2.26667 383.945L2.40464 383.827L4.53334 381.976L5.45972 382.212L5.69624 382.271L5.85392 382.074L8.12059 379.475L8.21914 379.356V379.199L8.1403 376.796V376.658L8.04175 376.54L6.36639 374.669L6.56349 371.38L6.48465 370.395L6.46494 370.198L6.28755 370.08L3.74493 368.622L1.91189 366.574L3.33102 365.629L6.20871 365.668L7.68697 366.357L7.76581 366.397H7.84465L11.0377 366.456L14.0534 368.012L17.9954 369.351L18.1925 369.43L18.3699 369.292L22.4893 365.845L24.2435 367.697L25.1108 372.148L25.1305 372.227L25.1699 372.286L26.8058 374.59L26.5299 377.781L26.5102 378.057L26.7664 378.175L28.7966 379.1L26.8847 381.09L26.727 381.267L26.8058 381.484L27.7913 384.359L26.7467 387.057L24.894 388.16L24.6377 388.298L24.6969 388.574L25.2093 390.78L25.9386 392.415L25.978 392.493L26.0569 392.552L28.698 394.719L28.836 394.837L29.0134 394.798L32.1079 394.345L32.0487 395.625V395.763L32.1276 395.881L32.8766 396.945L33.0145 397.141L33.2511 397.102L35.0053 396.905L38.0406 400.825ZM182.634 423.652L178.83 422.903L178.673 422.864L178.574 422.746L176.603 419.89L176.544 419.791V419.673L176.367 414.808L174.179 415.734L174.08 415.773H173.982L170.789 415.537L170.394 415.498L170.414 415.104L170.631 411.047V410.909L170.73 410.79L173.785 407.324V402.774L167.162 396.334L163.259 395.507L163.121 395.467L163.023 395.349L160.204 391.666L160.145 391.568L160.125 391.449L159.731 386.585L154.173 384.595L154.035 384.556L153.976 384.418L151.65 379.77L148.733 380.676L148.654 380.715L148.575 380.696L142.82 379.928L142.248 383.847L142.209 384.044L142.051 384.142L136.079 387.766L135.961 387.825H135.843L130.56 387.55L126.914 390.09L126.697 390.228L126.48 390.09L122.361 387.451L117.414 384.812L117.374 386.092L117.354 386.486L116.96 386.466L111.067 386.27L108.682 389.834L108.583 389.992L108.406 390.012L105.292 390.406L101.448 397.279L101.389 397.398L101.251 397.437L95.3184 399.662L95.0425 399.781L94.8651 399.525L90.3514 392.848L79.0575 391.39L73.6766 396.984L84.2019 403.208L84.734 403.523L84.2216 403.877L82.014 405.394L81.8169 405.532L81.6001 405.414L76.0616 402.046L72.6123 404.744L72.2378 405.039L72.021 404.606L71.9027 404.35L64.0187 397.122L63.0331 406.517L62.974 407.088L62.4616 406.832L59.0714 405.138L51.1085 405.571L48.7038 408.663L48.3491 409.116L48.0534 408.624L42.5543 399.525L38.494 403.208L37.7844 403.858L38.1983 410.909L38.218 411.066L38.1195 411.184L35.9514 413.764L37.0354 417.014L40.1299 419.319L40.2876 419.437L40.2679 419.634L40.0708 424.479L41.9038 432.633L41.9235 432.692V432.751L41.3125 440.235L39.8737 452.781L39.854 452.86L41.6279 455.322L44.5844 454.042L44.8998 453.904L45.0772 454.199L47.0482 457.508L47.2256 457.784L52.3502 466.332L52.4094 466.43V471.59L57.8494 477.598L62.1856 482.364L62.2842 482.482V482.62L62.4813 489.021L63.8216 491.089L63.9595 491.384L63.9989 491.463V491.542L64.334 498.928L72.3561 502.729L72.5532 502.828L72.5729 503.064L72.632 504.187L72.6714 504.699L72.77 506.53L75.2337 508.362L75.3323 508.421L75.3717 508.539L76.8894 512.577L77.5398 515.748L77.5793 515.945L77.4413 516.083L75.0564 518.466L75.49 524.768L81.1665 532.863L81.2453 532.981V533.119L80.8709 541.431L79.8065 545.705L85.0888 552.263L87.7497 551.141L88.9323 549.112L89.1294 548.777L89.4645 548.954L92.1451 550.373L95.4564 551.416L99.5364 548.836L99.5167 537.945L102.158 522.681L102.178 522.562L102.276 522.464L112.052 513.109L112.88 503.143L111.934 499.184L111.875 498.928L112.072 498.77L116.704 495.284L116.822 495.205H116.96L123.622 495.343L130.067 492.389L130.363 492.251L130.56 492.527L130.6 492.566L137.143 494.949L154.685 494.516L153.306 488.095L153.227 487.701L153.621 487.623L157.484 486.874L160.815 468.163L157.839 464.146L153.996 463.24L153.641 463.161L153.7 462.806L154.193 460.049L154.212 459.931L154.311 459.832L159.633 454.928L155.178 448.724L154.902 448.369L155.316 448.173L156.972 447.306L160.224 445.868L160.204 445.829L160.638 445.632L167.734 443.288L168.719 438.108L168.759 437.911L168.916 437.813L174.573 434.701L174.612 434.661L174.652 434.642L180.979 433.007L182.97 432.337L182.634 423.652Z" fill="#EBEBEB"/>
<path id="&#208;&#161;&#208;&#181;&#208;&#178; &#208;&#183;&#208;&#176;&#208;&#191;&#208;&#176;&#208;&#180;" d="M260.253 206.548L260.194 206.43L258.716 203.731L258.637 203.574L258.46 203.534L253.769 202.412L253.552 202.372L253.394 202.55L245.077 211.511L245.037 211.55L244.998 211.59L242.731 216.002L242.692 216.1L242.711 216.218L243.224 222.58L242.238 225.278L242.219 225.337L242.1 225.436L239.085 227.839L236.897 227.799L235.951 227.779L236.621 228.469L239.026 230.99L239.144 231.108H239.301L244.82 231.364H244.998L245.116 231.246L247.777 228.705L247.856 228.626L247.895 228.528L249.807 221.95L255.858 215.135L259.445 211.669L259.544 211.57L259.564 211.452L260.313 206.666L260.253 206.548ZM226.667 191.914L226.588 191.796L224.105 188.31L224.006 188.172L223.829 188.152L217.463 187.246L217.403 187.226L217.344 187.246L212.22 188.27L211.885 188.329L211.904 188.664L212.22 195.243L201.773 207.867L201.576 208.123L201.773 208.379L203.291 210.231L203.409 210.369H209.717L212.318 214.209L212.437 214.387H212.653L219.118 214.268H219.394L219.493 214.012L220.459 211.472L223.711 208.97L223.829 208.872L223.849 208.714L224.479 204.322L224.223 199.26L226.45 196.641L226.549 196.523V196.385L226.667 191.993V191.914ZM483.116 245.151L486.96 252.222L481.677 256.614L481.421 256.811L481.579 257.086L484.358 262.01L478.76 271.937L478.682 272.075L478.721 272.232L480.869 279.342L477.637 284.306L472.079 286.157L471.96 286.196L471.882 286.275L468.215 290.549L454.142 291.179H454.024L453.926 291.258L446.751 297.186L442.178 297.265L436.896 297.344H436.758L436.64 297.442L430.214 303.115L424.991 303.391L422.921 300.141L422.665 299.747L422.31 300.062L412.317 308.945L412.239 309.023L412.199 309.142L410.701 314.519L400.964 323.204L400.925 323.244L400.885 323.283L389.71 342.329L387.719 345.736L380.663 344.751L368.797 335.022L368.6 334.844L368.364 334.962L363.988 337.385L353.049 336.144L345.421 332.205L338.266 324.15L338.148 324.031L337.99 324.012L328.155 323.066L327.859 323.027L327.741 323.303L324.942 330.216L319.975 332.481L305.429 326.887L305.173 326.789L304.976 326.986L300.226 332.304L298.609 331.023V322.633L298.57 322.554L297.486 319.856L308.938 307.074L309.056 306.955L309.036 306.778L308.524 300.791L308.504 300.673L308.425 300.574L304.759 296.123L304.621 295.946L304.404 295.985L299.536 296.753L299.457 296.773L299.398 296.812L292.775 301.066L286.704 300.81L286.429 300.791L286.31 301.047L285.187 303.844L285.088 304.1L285.285 304.297L289.267 308.039L285.009 312.431L282.329 309.752L282.171 309.595L281.954 309.634L275.43 311.269L266.068 305.793L260.194 294.981L260.155 294.882L260.056 294.823L251.068 289.387L250.99 289.348H250.891L237.173 288.58L232.285 283.931L234.197 277.018L234.236 276.821L234.118 276.664L230.038 271.681L229.919 271.523L229.722 271.543L226.411 271.72L218.212 266.442L217.325 258.662L217.285 258.308H216.93L210.071 258.347L203.212 252.241L203.094 252.123L202.936 252.143L198.817 252.399L194.244 248.676L193.357 245.052L193.318 244.915L193.199 244.836L189.001 241.842L188.765 241.665L188.528 241.842L186.656 243.28L186.537 243.378L186.498 243.516L185.926 246.549L177.628 245.84L174.77 243.339L174.711 243.28L174.613 243.24L165.645 240.838L161.151 237.588L158.273 234.712L157.997 234.437L157.721 234.712L154.804 237.627L154.725 237.706L154.686 237.824L153.306 243.674L150.862 247.436L144.732 248.617L143.017 247.711L142.879 247.633L142.741 247.672L139.43 248.519L138.957 248.46L140.356 245.998L140.435 245.88L140.396 245.742L139.489 241.192L139.45 240.956L139.213 240.897L134.542 239.735L133.675 236.032L136.927 232.014L137.124 231.758L136.927 231.502L134.089 227.937L133.655 220.571L141.105 215.746L141.283 215.627V215.43L141.48 210.014L146.506 209.423L146.703 209.404L146.802 209.226L151.02 202.175L158.017 202.569L158.234 202.589L158.352 202.412L161.939 197.468L168.325 192.544L172.996 192.012L177.293 191.52L177.392 191.5L177.471 191.461L183.857 187.345L188.962 192.229L189.08 192.328L189.218 192.347L192.411 192.544L194.027 196.621L194.224 197.133L194.658 196.779L196.195 195.499L196.392 195.341L196.333 195.105L195.604 192.347L196.038 185.414L204.71 182.263L211.609 182.007L221.227 181.653L241.312 184.312L241.43 184.331L241.529 184.292L245.589 182.618L245.786 182.539L245.826 182.322L247.205 171.825L249.334 164.38L256.824 165.581L257.021 165.62L257.159 165.483L258.893 163.749L259.09 163.552L258.953 163.296L257.238 160.047L260.569 157.565L260.628 157.526L260.667 157.447L262.481 154.04L264.156 149.864L268.197 150.061H268.315L268.433 149.982L274.09 146.161L278.367 146.358L278.564 146.378L278.682 146.22L287.473 135.191L287.67 134.935L291.317 130.366L301.566 130.169H301.783L301.901 129.972L306.986 121.778L307.045 121.68V121.562L306.848 115.456L314.811 110.867L317.886 108.523L333.634 109.961L344.672 117.544L347.589 123.157L344.199 125.402L341.341 121.384L341.124 121.089L340.809 121.286L339.35 122.212L339.153 122.349L339.193 122.605L339.942 128.475L339.961 128.554L340.001 128.632L345.106 136.826L347.156 143.581V143.621L346.742 162.016V162.056L346.761 162.095L350.033 174.779L347.885 185.651L340.474 195.696L330.461 197.567L314.279 187.837L313.254 181.101L313.234 181.022L313.195 180.944L308.918 174.286L308.11 163.612V163.533L308.07 163.474L305.015 156.954L306.02 149.726L306.04 149.569L305.942 149.45L304.444 147.323L303.892 146.536L303.734 147.481L302.098 157.545L302.078 157.683L300.62 167.117L296.914 173.479L290.627 175.508L290.508 175.547L290.43 175.645L282.9 185.001L280.673 189.098L280.555 189.314L280.693 189.511L283.196 192.978L282.585 195.833L282.565 195.892L282.585 195.952L283.078 199.28L283.196 199.792L284.221 206.705L284.26 206.902L284.438 207.001L289.7 209.896L289.996 210.073L290.193 209.797L293.307 205.661L293.504 205.405L293.307 205.169L289.641 200.718L292.184 191.875L301.605 190.811L300.777 200.974L300.758 201.072L300.797 201.171L306.218 213.796L306.257 213.914L306.375 213.973L309.529 215.805L309.923 216.021L310.1 215.588L315.225 202.766L325.06 201.309L332.787 203.948L332.885 203.987L332.984 203.968L340.789 202.747L346.131 212.752L342.543 213.481L342.031 213.599L342.287 214.071L344.436 218.05L344.672 218.483L345.047 218.148L351.098 212.693L357.089 207.296L357.188 207.198L357.208 207.06L358.213 201.013L370.433 193.076L370.552 192.997L370.591 192.859L373.291 183.071L382.634 193.253L382.831 203.042L379.401 208.616L372.7 203.948L372.542 203.83L372.345 203.889L365.801 206.075L365.427 206.193L365.545 206.567L367.221 211.413L365.466 216.455L365.387 216.691L365.565 216.868L371.143 222.245L371.36 222.442L371.616 222.284L383.284 215.45L386.261 218.227L386.536 218.503L386.812 218.227L389.355 215.686L412.16 221.28L413.835 224.293L414.111 224.805L414.466 224.372L418.112 220.019L427.317 222.166L423.67 229.257L418.014 229.788L417.324 229.848L417.738 230.419L420.832 234.653L420.95 234.83L421.167 234.811L432.028 233.806L439.123 239.085L439.222 239.163H439.34L453.945 239.36V244.166L449.885 247.869L449.53 248.184L449.885 248.46L452.743 250.705L453.078 250.981L453.315 250.626L455.069 247.967L458.065 248.558L458.203 248.598L458.321 248.519L463.386 245.505L463.584 245.387V245.171L463.781 238.809L464.845 234.023H472.887L483.116 245.151ZM91.83 189.905L92.5987 173.046V172.849L87.6317 165.167L85.6213 173.203L82.3494 171.135L78.7818 160.854L74.1894 163.789L67.7441 163.355L82.3297 194.868L91.83 189.905ZM449.215 190.87L444.78 195.282L448.446 203.396L452.132 203.849L452.368 207.178L456.981 208.182L460.627 210.014L462.618 190.988L464.017 184.193L469.812 177.95L477.065 175.547L480.239 171.056L478.997 167.314L483.057 169.894L488.438 169.363L489.621 165.837L492.873 166.093L493.09 162.686L496.835 164.084L497.465 160.933L500.047 163.71L502.629 160.263L503.3 156.62L507.005 159.239L509.784 156.718L515.362 157.92L519.994 152.562L554.822 151.834L563.77 147.067L564.815 140.272L560.794 135.467L551.747 137.791L550.367 140.804L536.531 139.662L530.125 134.226L524.488 137.397L518.93 134.994L511.834 139.642H506.02L503.398 141.828L499.18 137.338L497.111 146.378L492.755 146.614L492.262 150.081L482.013 153.252L477.972 151.499L474.937 155.123L478.011 158.195L474.404 161.603L467.112 158.589L466.126 164.084L461.002 163.848L460.745 168.181L454.3 171.509L449.924 170.052L444.642 173.991L444.366 179.801L448.959 184.371L449.215 190.87ZM410.524 208.379L411.667 204.736L411.115 199.772L406.286 194.553L399.289 196.995L397.574 203.042L401.457 208.163L410.524 208.379ZM461.061 219.685L467.762 218.011L469.615 224.904L469.339 231.738L463.899 232.309L459.996 225.79L461.061 219.685ZM444.011 191.973L443.4 183.149L447.756 184.154V189.255L444.011 191.973Z" fill="#EBEBEB"/>
<g id="&#209;&#134;&#208;&#181;&#208;&#189;&#209;&#130;&#209;&#128;">
<path id="&#209;&#134;&#208;&#181;&#208;&#189;&#209;&#130;&#209;&#128;_2" d="M200.511 289.072L199.919 292.007L199.821 292.519L199.446 292.873L196.904 295.217L192.903 299.846L191.799 303.233L193.454 308.275L195.524 310.914L196.687 311.978L197.436 312.687L197.081 313.672L195.78 317.375L195.721 317.572L195.603 317.729L193.691 320.644L193.198 321.392L192.292 321.353L187.699 321.156L186.438 322.259L185.531 323.067L184.526 322.397L182.791 321.255L181.392 320.27L180.958 320.624L180.682 320.841L180.327 320.92L177.154 321.629L176.622 321.747L176.11 321.53L174.809 320.939L173.981 321.708L173.567 322.101L172.995 322.141L169.546 322.338L167.89 322.436V317.788L168.344 317.335L170.413 315.267L169.98 311.013L167.437 309.437L167.043 309.201L166.846 308.787L165.604 306.187L165.17 305.282L165.781 304.513L166.925 303.095L168.6 300.653V295.04L166.176 293.701L165.821 293.504L165.604 293.149L163.436 289.742L163.258 289.466L163.219 289.131L162.608 285.153L162.51 284.522L162.864 284.01L167.555 277.275L167.595 276.9L167.733 275.699L168.955 275.522L176.031 274.537L176.622 273.946L177.43 273.138L178.455 273.651L179.5 274.163L180.426 274.635L180.367 275.679L180.209 278.299L188.054 283.341L195.603 283.242L196.352 283.223L196.825 283.794L200.156 287.713L200.649 288.304L200.511 289.072ZM281.717 311.407L275.547 312.943L275.232 313.022L274.956 312.864L265.121 307.113L264.924 306.995L264.805 306.798L258.971 296.064L250.397 290.884L236.797 290.175L236.502 290.155L236.304 289.958L230.864 284.759L230.51 284.424L230.628 283.971L232.481 277.196L229.189 273.158L226.233 273.316L225.976 273.335L225.759 273.198L217.028 267.565L216.712 267.368L216.673 266.993L215.865 259.923L210.701 259.962L210.583 260.986L209.439 259.982H208.73L208.789 259.391L202.462 253.758L198.52 253.994L198.205 254.014L197.968 253.817L192.942 249.72L192.745 249.543L192.686 249.287L191.858 245.84L188.783 243.635L187.995 244.245L187.384 247.554L187.265 248.263L186.556 248.204L177.253 247.396L176.996 247.377L176.799 247.199L173.823 244.58L165.013 242.236L164.875 242.197L164.756 242.118L160.184 238.809L160.144 238.77L160.105 238.73L158.035 236.662L156.202 238.494L154.783 244.265L154.744 244.383L154.665 244.501L152.043 248.558L151.846 248.834L151.511 248.893L144.751 250.193L144.475 250.233L144.218 250.114L142.661 249.287L139.646 250.055L139.488 250.095L139.37 250.055L138.68 249.957L138.108 250.981L137.99 251.178L137.793 251.296L131.328 255.019L127.721 260.612L124.114 268.037L123.661 274.241L124.587 277.609L124.705 278.003L124.449 278.318L122.005 281.332L121.847 283.656L121.808 284.463L121 284.404L115.422 283.951L115.146 283.932L114.949 283.735L111.204 280.189L110.928 279.914L110.967 279.52L111.322 276.29L107.755 275.541L105.606 280.8L105.527 280.977L105.389 281.095L97.3477 287.91L97.939 292.145L101.842 291.948L102.137 291.928L102.374 292.125L105.311 294.508L105.527 294.685L105.587 294.961L106.73 300.338L110.159 299.964L110.278 299.944L110.396 299.964L114.141 300.673L114.791 300.791V303.883L114.633 304.08L109.016 311.466L108.76 311.801L108.346 311.781H108.169L104.877 313.199L103.379 316.173L103.221 316.508L102.866 316.606L100.797 317.118L100.6 320.959L103.675 322.771L104.108 323.027L104.049 323.539L103.221 331.122L103.182 331.339L103.044 331.516L99.9297 335.376L98.55 337.523L99.1413 340.438L101.763 341.659L102.275 341.895L102.236 342.447L101.881 346.642L109.331 351.33L109.686 351.546L109.706 351.98L109.903 360.508L116.191 372.581L116.388 372.936V372.955L118.043 376.087L118.142 376.284L118.122 376.481L117.827 383.276L123.109 386.092L126.637 388.357L129.869 386.132L130.086 385.974L130.362 385.994L135.428 386.269L140.651 383.079L141.242 378.923L141.36 378.155L142.129 378.273L148.436 379.1L151.767 378.056L152.418 377.859L152.714 378.45L155.138 383.295L160.105 385.048L160.874 384.359L161.248 378.076L161.287 377.466L161.898 377.347L167.201 376.422L174.966 372.404L175.735 372.01L177.075 371.34L178.159 369.843L178.258 361.689V361.63L178.278 361.571L179.263 355.761L179.303 355.564L179.441 355.407L184.191 349.754L184.545 349.34L185.058 349.518L187.817 350.483L189.867 350.404L197.574 343.55L197.613 343.51L197.653 343.471L201.496 340.753L199.032 334.076L198.816 333.466L199.387 333.131L205.557 329.527L205.734 329.428H205.931L212.632 329.212L220.556 324.485L220.674 324.426L220.793 324.386L223.276 323.874L224.991 321.412L225.208 321.117L225.582 321.077L230.372 320.723L230.726 320.683L230.983 320.92L232.52 322.357L235.22 320.821L235.417 320.703H235.615L249.51 320.821L251.067 319.777L251.264 319.64H251.521L256.192 319.758L256.724 319.777L256.902 320.289L258.104 323.677L261.593 325.253L261.731 325.312L261.849 325.43L264.391 328.01L269.063 323.264L269.299 323.027H269.654L281.342 323.244L281.539 316.094L281.559 315.799L281.756 315.582L283.747 313.396L281.717 311.407Z" fill="#EBEBEB"/>
<path id="&#208;&#188;&#208;&#190;&#209;&#129;&#208;&#186;&#208;&#178;&#208;&#176;" d="M166.136 305.379L167.378 307.94L166.353 305.813L166.136 305.379ZM171.005 313.12L171.241 315.523L171.005 313.12ZM169.428 300.909L168.837 301.775L169.428 300.909ZM199.742 288.914L199.151 291.849L199.111 292.105L198.914 292.282L196.313 294.665L192.193 299.412L191.247 302.327L192.193 299.412L196.313 294.665L199.092 292.105L199.801 288.559L199.742 288.914ZM195.031 317.059L194.992 317.157L194.953 317.236L193.041 320.151L192.785 320.525L192.351 320.506L188.705 320.368L192.785 320.545L194.992 317.197L196.51 312.923L196.332 313.415L195.031 317.059ZM193.396 309.437L192.725 308.59L192.509 307.92L192.725 308.59L193.396 309.437ZM185.511 322.002L184.999 321.668L183.304 320.545L181.392 319.206L180.505 319.934L180.367 320.053L180.19 320.092L176.957 320.899L176.681 320.959L176.425 320.84L174.631 320.033L173.409 321.155L173.212 321.352L172.936 321.372L169.487 321.569L168.659 321.608L173.232 321.352L174.651 320.033L176.681 320.939L180.347 320.033L181.372 319.206L183.284 320.545L185.511 322.002L186.753 320.899L185.965 321.589L185.511 322.002ZM166.59 293.05L166.412 292.952L166.294 292.774L164.914 290.608L166.412 292.952L169.428 294.626L166.59 293.05ZM179.421 278.751L187.837 284.167L179.421 278.751L179.638 275.166L179.598 275.679L179.421 278.751ZM177.647 274.162L178.12 274.398L177.647 274.162ZM196.51 312.864L196.135 312.509L194.933 311.406L193.396 309.417L194.953 311.426L196.51 312.864ZM179.638 275.166L179.185 274.93L178.14 274.418L178.1 274.398L179.638 275.166ZM192.509 307.9L190.971 303.174L191.247 302.307L190.971 303.174L192.509 307.9ZM195.997 284.049L199.801 288.54L199.545 288.264L196.214 284.345L195.997 284.049H195.623L187.837 284.167L195.997 284.049ZM163.377 284.778L168.364 277.628L168.502 276.447L176.445 275.344L177.627 274.142L177.233 274.556L176.445 275.344L169.113 276.368L168.521 276.447L168.462 277.057L168.403 277.648L163.594 284.542L163.377 284.778L163.416 285.093L164.027 289.072L164.067 289.229L164.165 289.367L164.954 290.588L164.087 289.229L163.377 284.778ZM168.837 301.775L167.575 303.587L166.432 305.025L166.117 305.419L167.575 303.607L168.837 301.775ZM167.693 308.629L167.358 307.959L167.575 308.432L167.693 308.629L167.891 308.747L170.749 310.52L171.005 313.12L170.749 310.52L167.693 308.629ZM171.241 315.523L168.896 317.866L168.659 318.103L171.241 315.523ZM186.753 320.899L187.443 320.289L188.705 320.328L187.443 320.289L186.753 320.899ZM195.761 294.114L191.562 298.959L191.523 299.018L191.484 299.097L190.183 303.075L190.143 303.193L190.183 303.311L192.016 308.905L192.036 308.964L192.075 309.003L194.342 311.918L194.361 311.938L194.401 311.958L195.623 313.08L194.322 316.783L192.41 319.698L187.364 319.501H187.207L187.088 319.6L185.472 321.018L183.777 319.875L181.629 318.359L181.392 318.181L181.175 318.378L180.052 319.284L176.819 320.092L174.789 319.186L174.553 319.068L174.356 319.245L172.956 320.545L169.507 320.742V318.398L171.971 315.936L172.089 315.818L172.069 315.621L171.537 310.244L171.517 310.047L171.36 309.949L168.344 308.058L167.102 305.458L168.245 304.02L168.265 304.001L170.197 301.204L170.256 301.105V294.094L170.059 293.976L167.023 292.302L164.855 288.894L164.244 284.916L169.113 277.924L169.152 277.845L169.172 277.747L169.251 277.077L176.721 276.033L176.839 276.013L176.938 275.915L177.825 275.029L178.869 275.541L178.672 278.85L178.652 279.066L178.849 279.184L187.581 284.778L187.68 284.837H187.798L195.702 284.719L199.033 288.638L198.441 291.573L195.84 293.956L195.82 293.976L195.761 294.114Z" fill="#EBEBEB"/>
</g>
</g>
</svg>
